<svg width="20" height="20" viewBox="0 0 20 20" fill="none" xmlns="http://www.w3.org/2000/svg">
<g clip-path="url(#clip0_437_7837)">
<mask id="mask0_437_7837" style="mask-type:alpha" maskUnits="userSpaceOnUse" x="0" y="0" width="20" height="20">
<rect width="20" height="20" fill="#D9D9D9"/>
</mask>
<g mask="url(#mask0_437_7837)">
<path d="M2.25542 12.5C2.04347 12.5 1.86458 12.4285 1.71875 12.2856C1.57292 12.1427 1.5 11.9656 1.5 11.7544C1.5 11.5431 1.57167 11.3646 1.715 11.2187C1.85847 11.0729 2.03618 11 2.24813 11H3.74458C3.95653 11 4.13542 11.0715 4.28125 11.2144C4.42708 11.3573 4.5 11.5344 4.5 11.7456C4.5 11.9569 4.42833 12.1354 4.285 12.2812C4.14153 12.4271 3.96382 12.5 3.75187 12.5H2.25542ZM6.29167 8.02083C6.13889 8.17361 5.96181 8.25 5.76042 8.25C5.55903 8.25 5.38194 8.17361 5.22917 8.02083L3.8125 6.60416C3.65972 6.45138 3.58333 6.27777 3.58333 6.08333C3.58333 5.88888 3.65639 5.71527 3.8025 5.56249C3.96194 5.40972 4.14271 5.33333 4.34479 5.33333C4.54674 5.33333 4.72347 5.40972 4.875 5.56249L6.29167 6.97916C6.44444 7.13194 6.52083 7.30555 6.52083 7.5C6.52083 7.69444 6.44444 7.86805 6.29167 8.02083ZM7.25 15C6.90278 15 6.60764 14.8785 6.36458 14.6354C6.12153 14.3924 6 14.0972 6 13.75C6 13.4028 6.12153 13.1076 6.36458 12.8646C6.60764 12.6215 6.90278 12.5 7.25 12.5H12.75C13.0972 12.5 13.3924 12.6215 13.6354 12.8646C13.8785 13.1076 14 13.4028 14 13.75C14 14.0972 13.8785 14.3924 13.6354 14.6354C13.3924 14.8785 13.0972 15 12.75 15H7.25ZM10.0044 6.5C9.79313 6.5 9.61458 6.42812 9.46875 6.28437C9.32292 6.14062 9.25 5.96249 9.25 5.74999V3.08333C9.25 2.87083 9.32146 2.6927 9.46438 2.54895C9.60729 2.4052 9.78438 2.33333 9.99563 2.33333C10.2069 2.33333 10.3854 2.4052 10.5312 2.54895C10.6771 2.6927 10.75 2.87083 10.75 3.08333V5.74999C10.75 5.96249 10.6785 6.14062 10.5356 6.28437C10.3927 6.42812 10.2156 6.5 10.0044 6.5ZM13.7292 8.02083C13.5764 7.86805 13.5 7.69097 13.5 7.48958C13.5 7.28819 13.5764 7.11111 13.7292 6.95833L15.1458 5.54166C15.2986 5.38888 15.4769 5.31249 15.6806 5.31249C15.8842 5.31249 16.0601 5.38888 16.2083 5.54166C16.3611 5.69319 16.4375 5.86993 16.4375 6.07187C16.4375 6.27395 16.3611 6.45138 16.2083 6.60416L14.7708 8.04166C14.6181 8.19444 14.4444 8.26736 14.25 8.26041C14.0556 8.25347 13.8819 8.17361 13.7292 8.02083ZM16.2554 12.5C16.0435 12.5 15.8646 12.4285 15.7188 12.2856C15.5729 12.1427 15.5 11.9656 15.5 11.7544C15.5 11.5431 15.5717 11.3646 15.715 11.2187C15.8585 11.0729 16.0362 11 16.2481 11H17.7446C17.9565 11 18.1354 11.0715 18.2812 11.2144C18.4271 11.3573 18.5 11.5344 18.5 11.7456C18.5 11.9569 18.4283 12.1354 18.285 12.2812C18.1415 12.4271 17.9638 12.5 17.7519 12.5H16.2554Z" fill="#BAC8DE"/>
</g>
</g>
<defs>
<clipPath id="clip0_437_7837">
<rect width="20" height="20" fill="white"/>
</clipPath>
</defs>
</svg>
